<mxfile host="app.diagrams.net" modified="2024-02-10T23:37:53.974Z" agent="Mozilla/5.0 (Macintosh; Intel Mac OS X 10_15_7) AppleWebKit/605.1.15 (KHTML, like Gecko) Version/17.3 Safari/605.1.15" version="23.1.1" etag="TpzZZq8wRDJk-UdAhOZL" type="github">
  <diagram name="Page-1" id="isyf78NvJ2EBEAnTLSQR">
    <mxGraphModel>
      <root>
        <mxCell id="0" />
        <mxCell id="1" parent="0" />
      </root>
    </mxGraphModel>
  </diagram>
</mxfile>
